<svg width="48" height="48" xmlns="http://www.w3.org/2000/svg" xml:space="preserve" enable-background="new 0 0 96 96" version="1.1">

 <g>
  <title>Layer 1</title>
  <g stroke="null" id="svg_1">
   <path stroke="null" id="svg_2" d="m24,0c13.255,0 24,10.52115 24,23.5s-10.745,23.5 -24,23.5s-24,-10.52115 -24,-23.5s10.745,-23.5 24,-23.5l0,0zm-10.618,24.1252c0.322,-1.8281 2.453,-2.84595 4.1345,-1.85552c0.1525,0.0891 0.298,0.19485 0.4335,0.31627l0.013,0.01224c0.7545,0.70794 1.6,1.44476 2.438,2.17522l0.719,0.63205l8.5315,-8.76256c0.5095,-0.52239 0.882,-0.8602 1.6465,-1.02861c2.6175,-0.56547 4.458,2.56738 2.603,4.48214l-10.633,10.92652c-1.0015,1.04624 -2.7915,1.14171 -3.868,0.14247c-0.617,-0.56106 -1.288,-1.13192 -1.9665,-1.70816c-1.175,-0.99973 -2.3735,-2.01953 -3.3505,-3.02905c-0.5865,-0.57379 -0.8395,-1.5133 -0.701,-2.303l0,0z" fill="#6BBE66" clip-rule="evenodd" fill-rule="evenodd"/>
  </g>
  <path stroke="#000" id="svg_3" d="m356.215,7.2409l0.56913,0l0.17587,-110.77041l0.17587,110.77041l0.56913,0l-0.46044,68.4591l0.17588,110.77041l-0.46044,-68.46096l-0.46044,68.46096l0.17588,-110.77041l-0.46044,-68.4591z" fill="#fff"/>
 </g>
</svg>